<svg width="40" height="40" viewBox="0 0 40 40" fill="none" xmlns="http://www.w3.org/2000/svg">
<path d="M26 14V21.5C26 22.6935 26.4741 23.8381 27.318 24.682C28.162 25.5259 29.3065 26 30.5 26C31.6935 26 32.8381 25.5259 33.682 24.682C34.5259 23.8381 35 22.6935 35 21.5V20C35 16.621 33.8591 13.3409 31.7621 10.6913C29.6652 8.04162 26.735 6.17762 23.4463 5.40128C20.1577 4.62493 16.7032 4.98172 13.6427 6.41384C10.5821 7.84596 8.09476 10.2695 6.58361 13.2918C5.07246 16.3141 4.62603 19.7581 5.31667 23.0658C6.00731 26.3735 7.79454 29.3512 10.3888 31.5163C12.9831 33.6814 16.2324 34.9072 19.6103 34.9949C22.9882 35.0827 26.2968 34.0274 29 32M26 20C26 20.7879 25.8448 21.5682 25.5433 22.2961C25.2418 23.0241 24.7998 23.6855 24.2427 24.2427C23.6855 24.7998 23.0241 25.2418 22.2961 25.5433C21.5682 25.8448 20.7879 26 20 26C19.2121 26 18.4319 25.8448 17.7039 25.5433C16.976 25.2418 16.3145 24.7998 15.7574 24.2427C15.2002 23.6855 14.7583 23.0241 14.4567 22.2961C14.1552 21.5682 14 20.7879 14 20C14 18.4087 14.6322 16.8826 15.7574 15.7574C16.8826 14.6322 18.4087 14 20 14C21.5913 14 23.1174 14.6322 24.2427 15.7574C25.3679 16.8826 26 18.4087 26 20Z" stroke="white" stroke-width="2.5" stroke-linecap="round" stroke-linejoin="round"/>
</svg>
