<svg width="25" height="24" viewBox="0 0 25 24" fill="none" xmlns="http://www.w3.org/2000/svg">
<path d="M17.8587 2.25H7.25266C6.07325 2.25 4.94213 2.71852 4.10816 3.5525C3.27419 4.38647 2.80566 5.51758 2.80566 6.697V17.303C2.80566 18.4824 3.27419 19.6135 4.10816 20.4475C4.94213 21.2815 6.07325 21.75 7.25266 21.75H17.8587C19.0381 21.75 20.1692 21.2815 21.0032 20.4475C21.8371 19.6135 22.3057 18.4824 22.3057 17.303V6.697C22.3057 5.51758 21.8371 4.38647 21.0032 3.5525C20.1692 2.71852 19.0381 2.25 17.8587 2.25ZM9.39866 17.992C9.4018 18.0464 9.39377 18.1009 9.37508 18.1521C9.35639 18.2034 9.32742 18.2502 9.28996 18.2898C9.2525 18.3294 9.20734 18.361 9.15724 18.3825C9.10715 18.404 9.05319 18.4151 8.99866 18.415H7.21866C7.11132 18.4124 7.00929 18.3678 6.93449 18.2907C6.8597 18.2137 6.81811 18.1104 6.81866 18.003V10.6C6.81719 10.5466 6.82645 10.4934 6.8459 10.4435C6.86534 10.3937 6.89457 10.3483 6.93186 10.31C6.96915 10.2717 7.01374 10.2413 7.06301 10.2205C7.11227 10.1997 7.1652 10.189 7.21866 10.189H8.99866C9.05213 10.189 9.10506 10.1997 9.15432 10.2205C9.20358 10.2413 9.24818 10.2717 9.28547 10.31C9.32276 10.3483 9.35199 10.3937 9.37143 10.4435C9.39087 10.4934 9.40014 10.5466 9.39866 10.6V17.992ZM8.07566 8.632C7.88295 8.63056 7.69241 8.59117 7.51491 8.51608C7.33742 8.441 7.17646 8.33169 7.04121 8.1944C6.90596 8.05711 6.79908 7.89452 6.72666 7.71593C6.65425 7.53733 6.61772 7.34621 6.61916 7.1535C6.62061 6.96079 6.66 6.77024 6.73508 6.59275C6.81016 6.41526 6.91947 6.25429 7.05676 6.11904C7.19405 5.98379 7.35664 5.87691 7.53524 5.8045C7.71384 5.73208 7.90495 5.69556 8.09766 5.697C8.48018 5.70944 8.84269 5.87087 9.10785 6.14686C9.37301 6.42284 9.51981 6.79152 9.51694 7.17423C9.51407 7.55694 9.36175 7.92337 9.09248 8.19535C8.82322 8.46732 8.45833 8.6233 8.07566 8.63M18.8927 17.98C18.8922 18.081 18.8525 18.178 18.782 18.2503C18.7115 18.3227 18.6157 18.3649 18.5147 18.368H16.6357C16.5345 18.3649 16.4385 18.3226 16.368 18.25C16.2974 18.1774 16.2579 18.0802 16.2577 17.979V14.555C16.2577 14.044 16.4137 12.332 14.9017 12.332C13.7227 12.332 13.4897 13.532 13.4447 14.066V18.057C13.4447 18.1584 13.4053 18.2558 13.3347 18.3286C13.2641 18.4014 13.168 18.4439 13.0667 18.447H11.2437C11.1404 18.4467 11.0415 18.4055 10.9685 18.3324C10.8956 18.2593 10.8547 18.1603 10.8547 18.057V10.564C10.8578 10.4627 10.9002 10.3665 10.9731 10.296C11.0459 10.2254 11.1433 10.186 11.2447 10.186H13.0667C13.1681 10.186 13.2655 10.2254 13.3383 10.296C13.4111 10.3665 13.4535 10.4627 13.4567 10.564V11.209C13.7227 10.8196 14.09 10.5103 14.5189 10.3143C14.9479 10.1183 15.4222 10.0432 15.8907 10.097C18.9257 10.097 18.9147 12.932 18.9147 14.544L18.8927 17.98Z" fill="white"/>
</svg>
