<svg width="25" height="24" viewBox="0 0 25 24" fill="none" xmlns="http://www.w3.org/2000/svg">
<path d="M9.59566 21.54C10.5557 21.83 11.5257 22 12.5557 22C15.2078 22 17.7514 20.9464 19.6267 19.0711C21.5021 17.1957 22.5557 14.6522 22.5557 12C22.5557 10.6868 22.297 9.38642 21.7945 8.17317C21.2919 6.95991 20.5553 5.85752 19.6267 4.92893C18.6981 4.00035 17.5958 3.26375 16.3825 2.7612C15.1692 2.25866 13.8689 2 12.5557 2C11.2424 2 9.94209 2.25866 8.72883 2.7612C7.51557 3.26375 6.41318 4.00035 5.4846 4.92893C3.60923 6.8043 2.55566 9.34784 2.55566 12C2.55566 16.25 5.22566 19.9 8.99566 21.34C8.90566 20.56 8.81566 19.27 8.99566 18.38L10.1457 13.44C10.1457 13.44 9.85566 12.86 9.85566 11.94C9.85566 10.56 10.7157 9.53 11.6957 9.53C12.5557 9.53 12.9557 10.16 12.9557 10.97C12.9557 11.83 12.3857 13.06 12.0957 14.24C11.9257 15.22 12.6157 16.08 13.6157 16.08C15.3957 16.08 16.7757 14.18 16.7757 11.5C16.7757 9.1 15.0557 7.46 12.5857 7.46C9.76566 7.46 8.10566 9.56 8.10566 11.77C8.10566 12.63 8.38566 13.5 8.84566 14.07C8.93566 14.13 8.93566 14.21 8.90566 14.36L8.61566 15.45C8.61566 15.62 8.50566 15.68 8.33566 15.56C7.05566 15 6.31566 13.18 6.31566 11.71C6.31566 8.55 8.55566 5.68 12.8757 5.68C16.3157 5.68 18.9957 8.15 18.9957 11.43C18.9957 14.87 16.8657 17.63 13.8157 17.63C12.8457 17.63 11.8957 17.11 11.5557 16.5L10.8857 18.87C10.6557 19.73 10.0257 20.88 9.59566 21.57V21.54Z" fill="white"/>
</svg>
