<svg width="40" height="40" viewBox="0 0 40 40" fill="none" xmlns="http://www.w3.org/2000/svg">
<path fill-rule="evenodd" clip-rule="evenodd" d="M8.13838 6.32216C10.1667 4.30549 13.5067 4.66383 15.205 6.93383L17.3084 9.74049C18.6917 11.5872 18.5684 14.1672 16.9267 15.7988L16.53 16.1955C16.4851 16.362 16.4805 16.5369 16.5167 16.7055C16.6217 17.3855 17.19 18.8255 19.57 21.1922C21.95 23.5588 23.4 24.1255 24.09 24.2322C24.2639 24.2671 24.4435 24.262 24.615 24.2172L25.295 23.5405C26.755 22.0905 28.995 21.8188 30.8017 22.8005L33.985 24.5338C36.7134 26.0138 37.4017 29.7205 35.1684 31.9422L32.8 34.2955C32.0534 35.0372 31.05 35.6555 29.8267 35.7705C26.81 36.0522 19.7817 35.6922 12.3934 28.3472C5.49838 21.4905 4.17505 15.5105 4.00671 12.5638C3.92338 11.0738 4.62671 9.81383 5.52338 8.92383L8.13838 6.32216ZM13.205 8.43216C12.36 7.30383 10.7867 7.21383 9.90004 8.09549L7.28338 10.6955C6.73338 11.2422 6.47005 11.8455 6.50338 12.4222C6.63671 14.7638 7.70338 20.1588 14.1567 26.5755C20.9267 33.3055 27.1784 33.5072 29.595 33.2805C30.0884 33.2355 30.5784 32.9788 31.0367 32.5238L33.4034 30.1688C34.3667 29.2122 34.155 27.4688 32.7917 26.7288L29.6084 24.9972C28.7284 24.5205 27.6984 24.6772 27.0584 25.3138L26.3 26.0688L25.4167 25.1822C26.3 26.0688 26.2984 26.0705 26.2967 26.0705L26.295 26.0738L26.29 26.0788L26.2784 26.0888L26.2534 26.1122C26.1831 26.1775 26.1072 26.2366 26.0267 26.2888C25.8934 26.3772 25.7167 26.4755 25.495 26.5572C25.045 26.7255 24.4484 26.8155 23.7117 26.7022C22.2667 26.4805 20.3517 25.4955 17.8067 22.9655C15.2634 20.4355 14.27 18.5322 14.0467 17.0888C13.9317 16.3522 14.0234 15.7555 14.1934 15.3055C14.2869 15.0523 14.4209 14.8159 14.59 14.6055L14.6434 14.5472L14.6667 14.5222L14.6767 14.5122L14.6817 14.5072L14.685 14.5038L15.165 14.0272C15.8784 13.3155 15.9784 12.1372 15.3067 11.2388L13.205 8.43216Z" fill="white"/>
</svg>
