<svg width="32" height="32" viewBox="0 0 32 32" fill="none" xmlns="http://www.w3.org/2000/svg">
<path d="M0 16C0 7.16344 7.16344 0 16 0C24.8366 0 32 7.16344 32 16C32 24.8366 24.8366 32 16 32C7.16344 32 0 24.8366 0 16Z" fill="#11284A"/>
<path d="M13.6646 23.9166H16.998V17.2416H20.0013L20.3313 13.9249H16.998V12.2499C16.998 12.0289 17.0858 11.8169 17.242 11.6607C17.3983 11.5044 17.6103 11.4166 17.8313 11.4166H20.3313V8.08325H17.8313C16.7262 8.08325 15.6664 8.52224 14.885 9.30364C14.1036 10.085 13.6646 11.1448 13.6646 12.2499V13.9249H11.998L11.668 17.2416H13.6646V23.9166Z" fill="white"/>
</svg>
