<svg width="32" height="32" viewBox="0 0 32 32" fill="none" xmlns="http://www.w3.org/2000/svg">
<path d="M0 16C0 7.16344 7.16344 0 16 0C24.8366 0 32 7.16344 32 16C32 24.8366 24.8366 32 16 32C7.16344 32 0 24.8366 0 16Z" fill="#11284A"/>
<path d="M15.9988 12.1475C14.9769 12.1475 13.9968 12.5534 13.2741 13.2761C12.5515 13.9987 12.1455 14.9788 12.1455 16.0008C12.1455 17.0228 12.5515 18.0029 13.2741 18.7255C13.9968 19.4482 14.9769 19.8541 15.9988 19.8541C17.0208 19.8541 18.0009 19.4482 18.7236 18.7255C19.4462 18.0029 19.8522 17.0228 19.8522 16.0008C19.8522 14.9788 19.4462 13.9987 18.7236 13.2761C18.0009 12.5534 17.0208 12.1475 15.9988 12.1475ZM15.9988 18.5033C15.6701 18.5033 15.3446 18.4385 15.0409 18.3127C14.7371 18.1869 14.4612 18.0025 14.2287 17.7701C13.9963 17.5376 13.8119 17.2617 13.6861 16.9579C13.5603 16.6542 13.4955 16.3287 13.4955 16C13.4955 15.6712 13.5603 15.3457 13.6861 15.042C13.8119 14.7383 13.9963 14.4623 14.2287 14.2298C14.4612 13.9974 14.7371 13.813 15.0409 13.6872C15.3446 13.5614 15.6701 13.4966 15.9988 13.4966C16.6628 13.4966 17.2995 13.7604 17.769 14.2298C18.2384 14.6993 18.5022 15.336 18.5022 16C18.5022 16.6639 18.2384 17.3006 17.769 17.7701C17.2995 18.2396 16.6628 18.5033 15.9988 18.5033Z" fill="white"/>
<path d="M20.0048 12.9041C20.5009 12.9041 20.9031 12.5019 20.9031 12.0058C20.9031 11.5096 20.5009 11.1074 20.0048 11.1074C19.5086 11.1074 19.1064 11.5096 19.1064 12.0058C19.1064 12.5019 19.5086 12.9041 20.0048 12.9041Z" fill="white"/>
<path d="M23.1111 11.0925C22.9182 10.5943 22.6234 10.1419 22.2456 9.7642C21.8677 9.38651 21.4152 9.09188 20.917 8.89915C20.3339 8.68028 19.7179 8.56193 19.0953 8.54915C18.2928 8.51415 18.0386 8.50415 16.0036 8.50415C13.9686 8.50415 13.7078 8.50415 12.912 8.54915C12.2898 8.56128 11.6743 8.67965 11.092 8.89915C10.5936 9.09165 10.1409 9.38621 9.76306 9.76392C9.38521 10.1416 9.09048 10.5942 8.89779 11.0925C8.67887 11.6755 8.5608 12.2915 8.54862 12.9142C8.51279 13.7158 8.50195 13.97 8.50195 16.0058C8.50195 18.0408 8.50195 18.3 8.54862 19.0975C8.56112 19.7208 8.67862 20.3358 8.89779 20.92C9.09102 21.4181 9.38603 21.8705 9.76398 22.2481C10.1419 22.6258 10.5945 22.9205 11.0928 23.1133C11.674 23.341 12.2898 23.4678 12.9136 23.4883C13.7161 23.5233 13.9703 23.5341 16.0053 23.5341C18.0403 23.5341 18.3011 23.5341 19.097 23.4883C19.7195 23.4757 20.3355 23.3576 20.9186 23.1392C21.4167 22.946 21.8691 22.6511 22.2469 22.2733C22.6247 21.8955 22.9196 21.4431 23.1128 20.945C23.332 20.3617 23.4495 19.7466 23.462 19.1233C23.4978 18.3217 23.5086 18.0675 23.5086 16.0317C23.5086 13.9958 23.5086 13.7375 23.462 12.94C23.4523 12.3085 23.3336 11.6835 23.1111 11.0925ZM22.0961 19.0358C22.0907 19.5161 22.0031 19.9918 21.837 20.4425C21.7118 20.7665 21.5202 21.0608 21.2745 21.3064C21.0288 21.5519 20.7344 21.7434 20.4103 21.8683C19.9646 22.0337 19.4939 22.1214 19.0186 22.1275C18.227 22.1641 18.0036 22.1733 15.9736 22.1733C13.942 22.1733 13.7345 22.1733 12.9278 22.1275C12.4527 22.1217 11.9822 22.034 11.537 21.8683C11.2117 21.7441 10.9161 21.5531 10.6694 21.3074C10.4226 21.0618 10.2301 20.7672 10.1045 20.4425C9.94066 19.9967 9.85305 19.5265 9.84529 19.0517C9.80945 18.26 9.80112 18.0367 9.80112 16.0067C9.80112 13.9758 9.80112 13.7683 9.84529 12.9608C9.85067 12.4808 9.93833 12.0053 10.1045 11.555C10.3586 10.8975 10.8795 10.38 11.537 10.1283C11.9824 9.96343 12.4528 9.87579 12.9278 9.86915C13.7203 9.83332 13.9428 9.82332 15.9736 9.82332C18.0045 9.82332 18.2128 9.82332 19.0186 9.86915C19.494 9.87487 19.9648 9.96254 20.4103 10.1283C20.7344 10.2535 21.0287 10.4452 21.2744 10.6908C21.5201 10.9365 21.7117 11.2309 21.837 11.555C22.0007 12.0008 22.0884 12.471 22.0961 12.9458C22.132 13.7383 22.1411 13.9608 22.1411 15.9917C22.1411 18.0217 22.1411 18.24 22.1053 19.0366L22.0961 19.0358Z" fill="white"/>
</svg>
