<svg width="32" height="32" viewBox="0 0 32 32" fill="none" xmlns="http://www.w3.org/2000/svg">
<path d="M0 16C0 7.16344 7.16344 0 16 0C24.8366 0 32 7.16344 32 16C32 24.8366 24.8366 32 16 32C7.16344 32 0 24.8366 0 16Z" fill="#11284A"/>
<path d="M14.3337 18.5001L18.6587 16.0001L14.3337 13.5001V18.5001ZM23.967 11.9751C24.0753 12.3667 24.1503 12.8917 24.2003 13.5584C24.2587 14.2251 24.2837 14.8001 24.2837 15.3001L24.3337 16.0001C24.3337 17.8251 24.2003 19.1667 23.967 20.0251C23.7587 20.7751 23.2753 21.2584 22.5253 21.4667C22.1337 21.5751 21.417 21.6501 20.317 21.7001C19.2337 21.7584 18.242 21.7834 17.3253 21.7834L16.0003 21.8334C12.5087 21.8334 10.3337 21.7001 9.47533 21.4667C8.72533 21.2584 8.24199 20.7751 8.03366 20.0251C7.92533 19.6334 7.85033 19.1084 7.80033 18.4417C7.74199 17.7751 7.71699 17.2001 7.71699 16.7001L7.66699 16.0001C7.66699 14.1751 7.80033 12.8334 8.03366 11.9751C8.24199 11.2251 8.72533 10.7417 9.47533 10.5334C9.86699 10.4251 10.5837 10.3501 11.6837 10.3001C12.767 10.2417 13.7587 10.2167 14.6753 10.2167L16.0003 10.1667C19.492 10.1667 21.667 10.3001 22.5253 10.5334C23.2753 10.7417 23.7587 11.2251 23.967 11.9751Z" fill="white"/>
</svg>
