<svg width="25" height="23" viewBox="0 0 25 23" fill="none" xmlns="http://www.w3.org/2000/svg">
<path d="M10.8721 1.21262C11.3521 -0.260978 13.4369 -0.260978 13.9153 1.21262L15.6273 6.47982C15.7319 6.8006 15.9352 7.08011 16.2082 7.27839C16.4812 7.47667 16.8099 7.58357 17.1473 7.58382H22.6865C24.2369 7.58382 24.8801 9.56782 23.6273 10.4798L19.1473 13.7342C18.8738 13.9327 18.6701 14.2126 18.5654 14.534C18.4608 14.8553 18.4606 15.2016 18.5649 15.523L20.2769 20.7902C20.7569 22.2638 19.0689 23.491 17.8129 22.579L13.3329 19.3246C13.0596 19.1262 12.7306 19.0194 12.3929 19.0194C12.0552 19.0194 11.7262 19.1262 11.4529 19.3246L6.97291 22.579C5.71851 23.491 4.03211 22.2638 4.51051 20.7902L6.22251 15.523C6.32679 15.2016 6.3266 14.8553 6.22198 14.534C6.11735 14.2126 5.91366 13.9327 5.64011 13.7342L1.16171 10.4814C-0.0910914 9.56942 0.553709 7.58542 2.10251 7.58542H7.64011C7.97778 7.58551 8.30683 7.47876 8.58015 7.28046C8.85346 7.08216 9.05703 6.80246 9.16171 6.48142L10.8737 1.21422L10.8721 1.21262Z" fill="black"/>
</svg>
