<svg width="65" height="71" viewBox="0 0 65 71" fill="none" xmlns="http://www.w3.org/2000/svg">
<path d="M56.8654 43.623H56.8387C57.8768 42.4701 58.6151 40.9769 59.0363 39.3693L63.0558 38.5152C63.3115 38.4609 63.5407 38.3205 63.7052 38.1174C63.8697 37.9143 63.9595 37.6609 63.9595 37.3996V27.2266C63.9595 26.9654 63.8698 26.712 63.7055 26.5089C63.5411 26.3058 63.312 26.1654 63.0564 26.1109L57.342 24.894L55.3116 19.9925L58.4931 15.0921C58.6353 14.8729 58.6981 14.6115 58.6707 14.3517C58.6434 14.0918 58.5277 13.8492 58.3429 13.6644L51.1491 6.4701C50.9644 6.28533 50.7218 6.16961 50.4619 6.14228C50.202 6.11495 49.9407 6.17768 49.7215 6.31996L44.8211 9.50145L39.919 7.47099L38.7021 1.75646C38.6476 1.50092 38.5071 1.27182 38.304 1.10747C38.1009 0.94311 37.8475 0.853463 37.5863 0.853516H27.4135C27.1521 0.853531 26.8987 0.943294 26.6956 1.10779C26.4925 1.27228 26.3521 1.50153 26.2978 1.75718L25.0846 7.47099L20.1799 9.50159L15.2788 6.31996C15.0596 6.17757 14.7981 6.11478 14.5382 6.14211C14.2782 6.16944 14.0355 6.28523 13.8507 6.4701L6.65693 13.6644C6.47211 13.8493 6.35637 14.092 6.3291 14.3519C6.30182 14.6119 6.36465 14.8733 6.50708 15.0925L9.69228 19.9931L7.66182 24.8977L1.94444 26.1109C1.68872 26.1652 1.45939 26.3056 1.29483 26.5087C1.13028 26.7119 1.04049 26.9653 1.0405 27.2268V37.3997C1.04051 37.6611 1.13027 37.9145 1.29477 38.1176C1.45926 38.3206 1.68851 38.4611 1.94416 38.5154L5.96386 39.3694C6.38504 40.977 7.12331 42.4702 8.16142 43.6231H8.13461C3.66807 43.6231 0.0341797 47.034 0.0341797 51.2264V60.0495C0.0341797 60.352 0.154352 60.6422 0.368261 60.8561C0.58217 61.07 0.872292 61.1902 1.1748 61.1902H13.8489V69.0059C13.8489 69.3084 13.969 69.5985 14.1829 69.8124C14.3968 70.0263 14.687 70.1465 14.9895 70.1465H50.0109C50.3135 70.1465 50.6036 70.0263 50.8175 69.8124C51.0314 69.5985 51.1516 69.3084 51.1516 69.0059V61.19H63.8256C64.1281 61.19 64.4183 61.0698 64.6322 60.8559C64.8461 60.642 64.9663 60.3519 64.9663 60.0494V51.2264C64.966 47.0346 61.3319 43.623 56.8654 43.623ZM51.8213 43.623C47.9235 43.623 46.471 39.0319 46.471 36.1386C46.471 34.7196 47.0347 33.3587 48.0381 32.3553C49.0415 31.3519 50.4024 30.7882 51.8214 30.7882C53.2404 30.7882 54.6013 31.3519 55.6047 32.3553C56.6081 33.3587 57.1718 34.7196 57.1718 36.1386C57.1718 39.0322 55.7191 43.623 51.8213 43.623ZM33.4759 47.339C33.5248 47.3353 33.5739 47.3439 33.6188 47.364C33.6636 47.3841 33.7027 47.4151 33.7325 47.454C33.8174 47.8012 33.829 48.1623 33.7666 48.5142C33.6669 48.7316 33.5041 48.9138 33.2994 49.0374C33.1019 49.151 32.943 49.3212 32.8432 49.526C32.7433 49.7308 32.7071 49.9608 32.7392 50.1864L34.8425 64.9843L32.5019 67.3756L30.1581 64.984L32.2614 50.1864C32.2934 49.9609 32.2572 49.7309 32.1574 49.5261C32.0576 49.3214 31.8988 49.1512 31.7014 49.0375C31.4989 48.9138 31.3371 48.7334 31.2361 48.5187C31.1736 48.1662 31.1851 47.8046 31.2701 47.4569C31.2996 47.417 31.3388 47.3853 31.384 47.3647C31.4291 47.3441 31.4788 47.3352 31.5283 47.339H33.4759ZM25.1778 32.658C24.1688 29.3421 25.2022 26.9653 26.2472 25.5552C27.7414 23.5384 30.255 22.1833 32.5016 22.1833C34.4835 22.1833 36.7449 23.2712 38.2618 24.9549C38.3738 25.079 38.5116 25.1771 38.6656 25.2421C39.688 25.6737 40.0865 26.0384 40.3052 26.7433C40.6553 27.8704 40.4917 29.8278 39.8062 32.7274C39.7537 32.9496 39.769 33.1824 39.8502 33.3957C39.9314 33.6091 40.0748 33.7931 40.2618 33.9241C40.4487 34.0551 40.6707 34.1269 40.899 34.1304C41.1272 34.1338 41.3512 34.0687 41.5421 33.9435C41.553 33.9426 41.564 33.9426 41.5749 33.9435C41.7294 34.2352 41.7497 35.3122 41.2401 36.5254C40.8313 37.4988 40.281 38.049 39.9405 38.0979C39.7191 38.1171 39.5081 38.2006 39.3334 38.3382C39.1588 38.4757 39.0282 38.6612 38.9576 38.872C37.6989 42.6295 35.165 45.0574 32.5014 45.0574C29.8351 45.0574 27.2997 42.6295 26.0411 38.872C25.9715 38.6642 25.8435 38.4808 25.6725 38.3438C25.5014 38.2069 25.2945 38.1221 25.0765 38.0996C24.7343 38.0644 24.1718 37.5099 23.7565 36.5183C23.2492 35.3064 23.2717 34.2323 23.4263 33.9435C23.4377 33.9425 23.4493 33.9425 23.4608 33.9435C23.6567 34.072 23.8876 34.1371 24.1219 34.1298C24.3561 34.1226 24.5825 34.0433 24.7701 33.9028C24.9577 33.7623 25.0975 33.5674 25.1704 33.3447C25.2434 33.1219 25.2459 32.8821 25.1777 32.6578L25.1778 32.658ZM40.9133 40.1823C42.7112 39.4605 43.7456 36.9543 43.9217 35.1725C44.0942 33.4338 43.5055 32.1729 42.3442 31.7881C43.439 26.2028 42.2816 24.3696 39.785 23.2416C37.8316 21.1763 35.0638 19.9021 32.5012 19.9021C29.5213 19.9021 26.347 21.5879 24.4138 24.1971C22.7932 26.3843 22.1823 29.0368 22.6369 31.7951C21.4888 32.1875 20.9068 33.444 21.0779 35.1731C21.2541 36.9533 22.2875 39.4571 24.0853 40.1808C24.8409 42.1888 25.9075 43.8451 27.1792 45.0577H25.1403C24.8267 45.0577 24.5167 45.073 24.2093 45.0965C22.5003 43.9818 21.0294 42.5391 19.8818 40.8521C20.4878 39.354 20.8041 37.7546 20.8139 36.1386C20.8135 34.8929 20.5083 33.6663 19.9248 32.5657C19.3414 31.4651 18.4974 30.524 17.4666 29.8245C18.057 26.2636 19.8922 23.0279 22.6454 20.6937C25.3986 18.3595 28.8909 17.0784 32.5004 17.0786C36.1099 17.0787 39.6021 18.3601 42.3551 20.6946C45.1081 23.029 46.943 26.2649 47.5331 29.8258C46.5032 30.5256 45.6602 31.4667 45.0774 32.567C44.4946 33.6673 44.1898 34.8935 44.1895 36.1386C44.1992 37.7535 44.5146 39.3519 45.1192 40.8494C43.9723 42.5376 42.5016 43.9813 40.7924 45.0968C40.4814 45.0718 40.1695 45.0587 39.8575 45.0577H37.8201C39.0917 43.8452 40.1584 42.1896 40.9133 40.1823ZM18.6614 43.0489C18.8275 43.2622 18.9983 43.4718 19.1739 43.6777C18.858 43.6418 18.5405 43.6236 18.2226 43.623H18.1976C18.3609 43.4388 18.5156 43.2472 18.6614 43.0489ZM46.3393 43.0481C46.4855 43.2465 46.6404 43.4383 46.8035 43.623H46.7773C46.4597 43.6236 46.1424 43.6418 45.8269 43.6777C46.0028 43.4718 46.1736 43.262 46.3393 43.0481ZM5.54682 36.1386C5.54682 36.4095 5.5568 36.6823 5.5742 36.9544L3.32146 36.4758V28.1505L8.72275 27.0046C8.90387 26.9662 9.07292 26.8842 9.21528 26.7658C9.35765 26.6474 9.46905 26.4962 9.53986 26.3251L12.0296 20.311C12.1004 20.14 12.1285 19.9543 12.1116 19.77C12.0946 19.5857 12.033 19.4083 11.9322 19.2531L8.92378 14.6241L14.8123 8.73566L19.4398 11.7416C19.5949 11.8423 19.7723 11.9038 19.9565 11.9207C20.1407 11.9376 20.3262 11.9095 20.4971 11.8387L26.5117 9.34903C26.6827 9.27823 26.834 9.16685 26.9524 9.02451C27.0708 8.88218 27.1527 8.71316 27.1912 8.53206L28.3367 3.13477H36.6632L37.8128 8.53277C37.8514 8.71367 37.9333 8.88249 38.0516 9.02466C38.1699 9.16684 38.321 9.27811 38.4919 9.34889L44.5019 11.8387C44.6728 11.9095 44.8584 11.9377 45.0427 11.9208C45.2269 11.9039 45.4043 11.8424 45.5595 11.7416L50.1887 8.73623L56.0772 14.6247L53.0718 19.2538C52.9711 19.409 52.9096 19.5864 52.8927 19.7706C52.8757 19.9549 52.9039 20.1405 52.9747 20.3114L55.4644 26.3215C55.5352 26.4924 55.6465 26.6436 55.7887 26.7619C55.9309 26.8802 56.0998 26.9621 56.2807 27.0006L61.6787 28.1501V36.4767L59.426 36.9553C59.4433 36.6831 59.4533 36.4108 59.4533 36.1395C59.4547 34.9525 59.179 33.7816 58.6482 32.7199C58.1174 31.6582 57.3462 30.7351 56.3959 30.0239C55.4456 29.3127 54.3424 28.8331 53.1741 28.6232C52.0059 28.4133 50.8048 28.479 49.6663 28.8149C48.8593 24.8576 46.7098 21.3006 43.5816 18.746C40.4535 16.1913 36.5387 14.7959 32.4999 14.7959C28.4611 14.7959 24.5464 16.1913 21.4182 18.746C18.29 21.3006 16.1405 24.8576 15.3335 28.8149C14.1951 28.4789 12.9941 28.4132 11.8258 28.623C10.6576 28.8328 9.55439 29.3124 8.60407 30.0235C7.65374 30.7346 6.88248 31.6577 6.35164 32.7194C5.8208 33.781 5.54502 34.9518 5.54625 36.1388L5.54682 36.1386ZM7.82807 36.1386C7.82443 35.4334 7.96019 34.7344 8.22754 34.0818C8.4949 33.4292 8.88858 32.8359 9.38596 32.336C9.88335 31.836 10.4746 31.4393 11.1258 31.1685C11.777 30.8978 12.4753 30.7585 13.1805 30.7585C13.8858 30.7585 14.584 30.8978 15.2352 31.1685C15.8864 31.4393 16.4777 31.836 16.9751 32.336C17.4725 32.8359 17.8661 33.4292 18.1335 34.0818C18.4009 34.7344 18.5366 35.4334 18.533 36.1386C18.533 39.0329 17.0787 43.623 13.1785 43.623C9.28066 43.623 7.82807 39.0322 7.82807 36.1386ZM2.31514 58.9083V51.2264C2.31514 48.2918 4.92561 45.9044 8.13433 45.9044H18.2226C18.8516 45.904 19.4771 45.9984 20.078 46.1844C16.3875 47.9251 13.8486 51.5025 13.8486 55.6279V58.9089L2.31514 58.9083ZM16.1298 55.6273C16.1298 51.0568 20.1728 47.3386 25.1419 47.3386H28.9688C28.8548 48.0968 28.9272 48.9497 29.1553 49.4544C29.3396 49.8524 29.5952 50.2132 29.9096 50.519L27.8199 65.2188C27.7953 65.3921 27.8109 65.5687 27.8654 65.7349C27.92 65.9012 28.012 66.0527 28.1345 66.1777L29.7872 67.8652H24.1809V57.6042C24.1809 57.3017 24.0608 57.0115 23.8468 56.7976C23.6329 56.5837 23.3428 56.4636 23.0403 56.4636C22.7378 56.4636 22.4477 56.5837 22.2338 56.7976C22.0198 57.0115 21.8997 57.3017 21.8997 57.6042V67.8652H16.1298V55.6273ZM48.87 67.8652H43.1042V57.6042C43.1042 57.3017 42.984 57.0115 42.7701 56.7976C42.5562 56.5837 42.2661 56.4636 41.9636 56.4636C41.661 56.4636 41.3709 56.5837 41.157 56.7976C40.9431 57.0115 40.8229 57.3017 40.8229 57.6042V67.8652H35.2145L36.8657 66.1783C36.9879 66.0532 37.0798 65.9018 37.1342 65.7356C37.1886 65.5694 37.204 65.393 37.1793 65.2198L35.0904 50.5212C35.4072 50.2153 35.6635 49.8525 35.8461 49.4518C36.0742 48.9564 36.1492 48.1023 36.0333 47.3384H39.8582C44.8275 47.3384 48.8705 51.0567 48.8705 55.6272L48.87 67.8652ZM62.6847 58.9088H51.1513V55.6278C51.1513 51.503 48.6123 47.925 44.9218 46.1842C45.5227 45.9982 46.1482 45.9038 46.7773 45.9042H56.8654C60.0734 45.9042 62.6847 48.2917 62.6847 51.2262V58.9088Z" fill="white"/>
</svg>
